<svg xmlns="http://www.w3.org/2000/svg" width="383.99999999999994" height="110.00335557988394" viewBox="0 0 374.89473684210526 107.39499750486752" class="css-1j8o68f"><defs id="SvgjsDefs2500"></defs><g id="SvgjsG2501" featurekey="0LeO0L-0" transform="matrix(7.674211502075195,0,0,7.674211502075195,3.52184092084683,-46.09069612933196)" fill="#000000"><path d="M5.3711 6.006 c2.0052 0 3.3235 0.70313 3.9551 2.1094 c0.35808 0.68359 0.53711 2.002 0.53711 3.9551 l0 0.068359 l-1.0352 0 l0 0.46875 l1.0352 0 l0 5.0488 l-0.68359 0 l0 1.8262 l-1.3574 0 l0 0.51758 l-4.7461 0 l0 -0.51758 l-0.58594 0 l0 -1.8262 l-1.2207 0 l0 -1.4258 l0.73242 0 l0 -0.74219 l-0.73242 0 l0 0.74219 l-1.7285 0 l0 -0.74219 l1.3086 0 c-0.013018 -1.1458 -0.019531 -2.0215 -0.019531 -2.627 l0 -1.1914 c0 -2.2136 0.37435 -3.6946 1.123 -4.4434 c0.69011 -0.8138 1.8294 -1.2207 3.418 -1.2207 z M3.6621 10.8301 l0.019541 0.0000095367 l-0.019531 0.039063 l0 1.2695 l-1.0547 0 l0 0.46875 l1.0547 0 c-0.019531 2.0117 -0.029297 3.5319 -0.029297 4.5605 l0 0.48828 l2.3438 0 l0 -0.77148 l1.0742 0 l0 -0.019531 c0 -0.95052 -0.0065136 -2.2754 -0.019531 -3.9746 c0 -0.071611 0.0065136 -0.25391 0.019531 -0.54688 c0 -1.8425 -0.10742 -2.972 -0.32227 -3.3887 c-0.22136 -0.40364 -0.62826 -0.60547 -1.2207 -0.60547 l-0.35156 0 c-0.70313 0 -1.1394 0.30925 -1.3086 0.92773 c-0.078125 0.3125 -0.13997 0.83008 -0.18555 1.5527 z M9.8633 12.1387 l1.6797 0 l0 0.46875 l-1.6797 0 l0 -0.46875 z M9.9805 12.6953 l0.048828 0 c0.039063 0 0.068359 0.094404 0.087891 0.2832 c0.026045 0 0.065107 -0.094404 0.11719 -0.2832 l0.068359 0 c0.039063 0 0.071611 0.10091 0.097656 0.30273 l0.019531 0 l0.068359 -0.30273 l0.11719 0 l0 0.029297 c-0.071611 0.33854 -0.12369 0.50781 -0.15624 0.50781 l-0.097656 0 c0 -0.026045 -0.022783 -0.12695 -0.068359 -0.30273 l-0.019531 0 c-0.026045 0.20183 -0.058594 0.30273 -0.097656 0.30273 l-0.097656 0 c-0.045576 -0.20183 -0.091152 -0.37109 -0.13673 -0.50781 z M10.029 13.398399999999999 l0.087881 0 c0.039063 0 0.087891 0.11067 0.14648 0.33203 l0.019531 0 c0 -0.032549 0.029297 -0.14322 0.087891 -0.33202 l0.16602 0 l0 0.53711 l-0.11719 0 l0 -0.27344 l-0.019531 0 c-0.045576 0.18229 -0.084639 0.27344 -0.11719 0.27344 l-0.068359 0 c-0.045576 -0.14323 -0.068359 -0.22787 -0.068359 -0.25392 l-0.029297 0 c0 0.16927 -0.016279 0.25391 -0.048828 0.25391 l-0.087891 0 l0 -0.48828 c0.0065136 -0.032549 0.022793 -0.048828 0.048838 -0.048828 z M9.9512 14.101600000000001 l0.097646 0.0000095367 c0.078125 0.045576 0.11719 0.10092 0.11719 0.16603 c0.0065136 0 0.05209 -0.055342 0.13673 -0.16602 l0.097656 0 l0 0.048828 l-0.13672 0.20508 c0 0.013018 0.05208 0.10091 0.15625 0.26367 l0 0.019531 l-0.11719 0 l-0.13672 -0.16602 c-0.05208 0.11067 -0.091143 0.16602 -0.11719 0.16602 l-0.11719 0 c0.11067 -0.16276 0.16602 -0.25717 0.16602 -0.28321 c-0.097656 -0.14323 -0.14648 -0.22787 -0.14648 -0.25392 z M10.029 14.8047 l0.13671 0 c0.15625 0 0.23438 0.055342 0.23438 0.16602 l0 0.019531 l-0.048828 0.068359 c0.026045 0 0.048828 0.026045 0.068359 0.078125 l0 0.087891 c-0.032549 0.078125 -0.11067 0.11719 -0.23438 0.11719 l-0.20508 0 l0 -0.48828 c0.0065136 -0.032549 0.022793 -0.048828 0.048838 -0.048828 z M10.117 14.9219 l0 0.097656 l0.14648 0 l0 -0.097656 l-0.14648 0 z M6.4941 14.9219 l0.13671 0 l0 0.18555 l0.16602 0 l0 -0.13672 c0.0065136 -0.032549 0.022793 -0.048828 0.048838 -0.048828 l0.087891 0 l0 0.51758 l-0.13672 0 l0 -0.21484 l-0.16602 0 l0 0.21484 l-0.13672 0 l0 -0.51758 z M10.117 15.1074 l0 0.11719 l0.16602 0 l0 -0.068359 c0 -0.032549 -0.016279 -0.048828 -0.048828 -0.048828 l-0.11719 0 z M10.029 15.5078 l0.30272 -0.0000095367 c0.026045 0.0065136 0.039063 0.022793 0.039063 0.048838 l0 0.068359 l-0.25391 0 l0 0.087891 l0.23438 0 l0 0.11719 l-0.23438 0 l0 0.097656 l0.25391 0 l0 0.11719 l-0.39063 0 l0 -0.48828 c0.0065136 -0.032549 0.022793 -0.048828 0.048838 -0.048828 z M6.4941 15.625 l0.39063 0 l0 0.048828 c0 0.058594 -0.078125 0.17578 -0.23438 0.35156 c0.17578 0 0.26367 0.013018 0.26367 0.039063 l0 0.078125 l-0.44922 0 l0 -0.097656 c0.11719 -0.13672 0.19531 -0.23763 0.23438 -0.30273 l-0.20508 0 l0 -0.11719 z M4.0332 16.2988 c0.13672 0 0.21484 0.10417 0.23438 0.3125 c0 0.14974 -0.094404 0.23438 -0.2832 0.25391 c-0.15625 -0.039063 -0.23438 -0.1237 -0.23438 -0.25391 c0 -0.20833 0.094404 -0.3125 0.2832 -0.3125 z M6.6309 16.3281 l0.13673 0 c0 0.039063 0.065107 0.20833 0.19531 0.50781 l-0.11719 0 c-0.032549 0 -0.048828 -0.029297 -0.048828 -0.087891 l-0.16602 0 c-0.032549 0 -0.048828 0.029297 -0.048828 0.087891 l-0.13672 0 l0 -0.019531 c0.032549 -0.058594 0.094395 -0.22136 0.18554 -0.48828 z M3.8965 16.5137 l0 0.097656 c0 0.091143 0.045576 0.13672 0.13672 0.13672 c0.065107 -0.013018 0.097656 -0.058594 0.097656 -0.13672 l0 -0.097656 c0 -0.026045 -0.032549 -0.058594 -0.097656 -0.097656 l-0.048828 0 c-0.019531 0 -0.048828 0.032549 -0.087891 0.097656 z M6.6797 16.5137 l-0.029297 0.11719 l0.097656 0 c-0.019531 -0.078125 -0.042314 -0.11719 -0.068359 -0.11719 z M3.9844 17.002 c0.10417 0 0.18229 0.048828 0.23438 0.14648 l0 0.068359 l-0.11719 0 c0 -0.065107 -0.045576 -0.097656 -0.13672 -0.097656 l-0.068359 0.097656 l0 0.087891 c0 0.097656 0.045576 0.14648 0.13672 0.14648 c0.013018 0 0.05208 -0.039063 0.11719 -0.11719 l0.097656 0 c0 0.13021 -0.087891 0.20833 -0.26367 0.23438 c-0.15625 -0.045576 -0.23438 -0.13347 -0.23438 -0.26367 c0.019531 -0.20183 0.097656 -0.30273 0.23438 -0.30273 z"></path></g><g id="SvgjsG2502" featurekey="pulpyG-0" transform="matrix(4.988292694091797,0,0,4.988292694091797,114.00702663449319,-9.435607518879653)" fill="#000000"><path d="M3.78 8.04 c-0.17334 0 -0.26 0.09334 -0.26 0.28 l0 8.84 c0 0.10666 0.01666 0.18332 0.05 0.22998 s0.11 0.07 0.23 0.07 l1.1 0 c0.12 0 0.19666 -0.02334 0.23 -0.07 s0.05 -0.12332 0.05 -0.22998 l0 -8.84 c0 -0.18666 -0.08666 -0.28 -0.26 -0.28 l-1.14 0 z M8.12 17.94 c0 0.28 -0.03334 0.54334 -0.1 0.79 s-0.18 0.46332 -0.34 0.64998 s-0.37334 0.33666 -0.64 0.45 s-0.6 0.17 -1 0.17 l-3.36 0 c-0.4 0 -0.73334 -0.05666 -1 -0.17 s-0.48 -0.26334 -0.64 -0.45 s-0.27334 -0.40332 -0.34 -0.64998 s-0.1 -0.51 -0.1 -0.79 l0 -10.56 c0 -0.57334 0.15666 -1.03 0.47 -1.37 s0.81 -0.51 1.49 -0.51 l3.6 0 c0.68 0 1.1767 0.17 1.49 0.51 s0.47 0.79666 0.47 1.37 l0 10.56 z M12.22 8.04 l0 5 l1.42 0 c0.18666 0 0.28 -0.1 0.28 -0.3 l0 -4.4 c0 -0.2 -0.09334 -0.3 -0.28 -0.3 l-1.42 0 z M16.78 14.1 c0 0.32 -0.11 0.61334 -0.33 0.88 s-0.54334 0.4 -0.97 0.4 l1.52 4.62 l-3 0 l-1.4 -4.62 l-0.38 0 l0 4.62 l-2.9 0 l0 -14.5 l5.5 0 c0.68 0 1.1767 0.17 1.49 0.51 s0.47 0.79666 0.47 1.37 l0 6.72 z M20.28 20 c-0.84 0 -1.4267 -0.17334 -1.76 -0.52 s-0.5 -0.92 -0.5 -1.72 l0 -10.48 c0 -0.57334 0.16334 -1.0133 0.49 -1.32 s0.73 -0.46 1.21 -0.46 l3.82 0 l0.5 2.7 l-2.78 0 c-0.17334 0 -0.26 0.09334 -0.26 0.28 l0 8.54 c0 0.18666 0.08666 0.28 0.26 0.28 l2.78 0 l-0.52 2.7 l-3.24 0 z M32.54 20 l-2.96 0 l0 -5.8 l-1.58 0 l0 5.8 l-2.96 0 l0 -14.5 l2.96 0 l0 6.2 l1.58 0 l0 -6.2 l2.96 0 l0 14.5 z M39.46 5.5 l0.72 2.7 l-1.94 0 l0 11.8 l-2.96 0 l0 -11.8 l-1.94 0 l0.76 -2.7 l5.36 0 z M40.980000000000004 5.5 l2.9 0 l0 14.5 l-2.9 0 l0 -14.5 z M45.080000000000005 5.5 l2.76 0 l1.48 5.82 l0 -5.82 l2.98 0 l0 14.5 l-2.98 0 l-1.56 -6.06 l0 6.06 l-2.68 0 l0 -14.5 z"></path></g></svg>